<mxfile host="65bd71144e">
    <diagram id="A_tYOe9iZ1WcpGx81PBD" name="Page-1">
        <mxGraphModel dx="899" dy="581" grid="1" gridSize="10" guides="1" tooltips="1" connect="1" arrows="1" fold="1" page="1" pageScale="1" pageWidth="827" pageHeight="1169" math="0" shadow="0">
            <root>
                <mxCell id="0"/>
                <mxCell id="1" parent="0"/>
                <mxCell id="7" style="edgeStyle=none;html=1;fontSize=14;" parent="1" source="2" target="4" edge="1">
                    <mxGeometry relative="1" as="geometry"/>
                </mxCell>
                <mxCell id="8" style="edgeStyle=orthogonalEdgeStyle;html=1;entryX=0.5;entryY=0;entryDx=0;entryDy=0;fontSize=14;rounded=0;" parent="1" source="2" target="5" edge="1">
                    <mxGeometry relative="1" as="geometry">
                        <Array as="points">
                            <mxPoint x="280" y="120"/>
                            <mxPoint x="-10" y="120"/>
                        </Array>
                    </mxGeometry>
                </mxCell>
                <mxCell id="9" style="edgeStyle=orthogonalEdgeStyle;rounded=0;html=1;fontSize=14;entryX=0.5;entryY=0;entryDx=0;entryDy=0;" parent="1" source="2" target="6" edge="1">
                    <mxGeometry relative="1" as="geometry">
                        <Array as="points">
                            <mxPoint x="280" y="120"/>
                            <mxPoint x="680" y="120"/>
                        </Array>
                    </mxGeometry>
                </mxCell>
                <mxCell id="2" value="Checking Age Eligibility" style="rounded=0;whiteSpace=wrap;html=1;fontSize=16;" parent="1" vertex="1">
                    <mxGeometry x="400" width="160" height="80" as="geometry"/>
                </mxCell>
                <mxCell id="15" style="edgeStyle=orthogonalEdgeStyle;rounded=0;html=1;entryX=0.5;entryY=0;entryDx=0;entryDy=0;fontSize=14;" parent="1" source="4" edge="1">
                    <mxGeometry relative="1" as="geometry">
                        <mxPoint x="280" y="280" as="targetPoint"/>
                        <Array as="points">
                            <mxPoint x="480" y="260"/>
                            <mxPoint x="280" y="260"/>
                        </Array>
                    </mxGeometry>
                </mxCell>
                <mxCell id="35" style="edgeStyle=orthogonalEdgeStyle;html=1;entryX=0.5;entryY=0;entryDx=0;entryDy=0;rounded=0;" parent="1" source="4" target="34" edge="1">
                    <mxGeometry relative="1" as="geometry">
                        <Array as="points">
                            <mxPoint x="480" y="260"/>
                            <mxPoint x="680" y="260"/>
                        </Array>
                    </mxGeometry>
                </mxCell>
                <mxCell id="39" style="edgeStyle=none;html=1;" edge="1" parent="1" source="4" target="38">
                    <mxGeometry relative="1" as="geometry"/>
                </mxCell>
                <mxCell id="4" value="Process" style="rounded=0;whiteSpace=wrap;html=1;fontSize=16;" parent="1" vertex="1">
                    <mxGeometry x="400" y="160" width="160" height="80" as="geometry"/>
                </mxCell>
                <mxCell id="31" style="edgeStyle=none;html=1;entryX=0.5;entryY=0;entryDx=0;entryDy=0;rounded=0;" parent="1" source="5" target="30" edge="1">
                    <mxGeometry relative="1" as="geometry">
                        <Array as="points">
                            <mxPoint x="80" y="260"/>
                        </Array>
                    </mxGeometry>
                </mxCell>
                <mxCell id="5" value="Input" style="rounded=0;whiteSpace=wrap;html=1;fontSize=16;" parent="1" vertex="1">
                    <mxGeometry y="160" width="160" height="80" as="geometry"/>
                </mxCell>
                <mxCell id="19" style="edgeStyle=orthogonalEdgeStyle;rounded=0;html=1;entryX=0.5;entryY=0;entryDx=0;entryDy=0;fontSize=14;" parent="1" source="6" edge="1">
                    <mxGeometry relative="1" as="geometry">
                        <mxPoint x="1280" y="279.9999999999999" as="targetPoint"/>
                        <Array as="points">
                            <mxPoint x="1180" y="260"/>
                            <mxPoint x="1280" y="260"/>
                        </Array>
                    </mxGeometry>
                </mxCell>
                <mxCell id="29" style="edgeStyle=orthogonalEdgeStyle;rounded=0;html=1;entryX=0.5;entryY=0;entryDx=0;entryDy=0;fontSize=13;" parent="1" source="6" target="28" edge="1">
                    <mxGeometry relative="1" as="geometry"/>
                </mxCell>
                <mxCell id="33" style="edgeStyle=orthogonalEdgeStyle;rounded=0;html=1;entryX=0.5;entryY=0;entryDx=0;entryDy=0;" parent="1" source="6" target="21" edge="1">
                    <mxGeometry relative="1" as="geometry">
                        <Array as="points">
                            <mxPoint x="1180" y="260"/>
                            <mxPoint x="1480" y="260"/>
                        </Array>
                    </mxGeometry>
                </mxCell>
                <mxCell id="37" style="edgeStyle=orthogonalEdgeStyle;rounded=0;html=1;entryX=0.5;entryY=0;entryDx=0;entryDy=0;" parent="1" source="6" target="36" edge="1">
                    <mxGeometry relative="1" as="geometry">
                        <Array as="points">
                            <mxPoint x="1180" y="260"/>
                            <mxPoint x="880" y="260"/>
                        </Array>
                    </mxGeometry>
                </mxCell>
                <mxCell id="6" value="Output" style="rounded=0;whiteSpace=wrap;html=1;fontSize=16;" parent="1" vertex="1">
                    <mxGeometry x="1100" y="160" width="160" height="80" as="geometry"/>
                </mxCell>
                <mxCell id="21" value="Show the program as done" style="rounded=0;whiteSpace=wrap;html=1;fontSize=16;" parent="1" vertex="1">
                    <mxGeometry x="1400" y="280" width="160" height="80" as="geometry"/>
                </mxCell>
                <mxCell id="26" value="Check if the chosen age is an integer" style="rounded=0;whiteSpace=wrap;html=1;fontSize=16;" parent="1" vertex="1">
                    <mxGeometry x="200" y="280" width="160" height="80" as="geometry"/>
                </mxCell>
                <mxCell id="28" value="Show if the chosen age integer&lt;br&gt;is not a proper age" style="rounded=0;whiteSpace=wrap;html=1;fontSize=16;" parent="1" vertex="1">
                    <mxGeometry x="1000" y="280" width="160" height="80" as="geometry"/>
                </mxCell>
                <mxCell id="30" value="Set an age" style="rounded=0;whiteSpace=wrap;html=1;fontSize=16;" parent="1" vertex="1">
                    <mxGeometry y="280" width="160" height="80" as="geometry"/>
                </mxCell>
                <mxCell id="32" value="Show if the age is over 25 and less than 40" style="rounded=0;whiteSpace=wrap;html=1;fontSize=16;" parent="1" vertex="1">
                    <mxGeometry x="1200" y="280" width="160" height="80" as="geometry"/>
                </mxCell>
                <mxCell id="34" value="Check if the age is over 25 and less than 40" style="rounded=0;whiteSpace=wrap;html=1;fontSize=16;" parent="1" vertex="1">
                    <mxGeometry x="600" y="280" width="160" height="80" as="geometry"/>
                </mxCell>
                <mxCell id="36" value="Show if the chosen age is not an integer" style="rounded=0;whiteSpace=wrap;html=1;fontSize=16;" parent="1" vertex="1">
                    <mxGeometry x="800" y="280" width="160" height="80" as="geometry"/>
                </mxCell>
                <mxCell id="38" value="Check if the age integer is not negative" style="rounded=0;whiteSpace=wrap;html=1;fontSize=16;" vertex="1" parent="1">
                    <mxGeometry x="400" y="280" width="160" height="80" as="geometry"/>
                </mxCell>
            </root>
        </mxGraphModel>
    </diagram>
</mxfile>